<mxfile host="app.diagrams.net" modified="2024-02-21T07:18:07.118Z" agent="Mozilla/5.0 (Macintosh; Intel Mac OS X 10_15_7) AppleWebKit/537.36 (KHTML, like Gecko) Chrome/121.0.0.0 Safari/537.36" version="22.1.15" etag="rtyUFSOaeTMg0EMLODrZ" type="github">
  <diagram name="第 1 页" id="O6Dbt-h-hjcFWietTdKC">
    <mxGraphModel>
      <root>
        <mxCell id="0" />
        <mxCell id="1" parent="0" />
      </root>
    </mxGraphModel>
  </diagram>
</mxfile>
